<svg width="103" height="24" viewBox="0 0 103 24" fill="none" xmlns="http://www.w3.org/2000/svg">
<path d="M14.9295 0.0800781C15.0799 1.34189 14.5382 2.5853 13.7465 3.49926C12.9203 4.399 11.5987 5.08719 10.3115 4.99855C10.143 3.7844 10.7952 2.49332 11.5253 1.70563C12.3506 0.811745 13.7836 0.126905 14.9295 0.0800781Z" fill="white"/>
<path d="M19.1433 7.35902C18.9997 7.43817 16.6191 8.74978 16.6452 11.4247C16.6759 14.6549 19.7069 15.7227 19.7431 15.7336C19.725 15.8088 19.2685 17.2763 18.1316 18.7631C17.1823 20.0742 16.1877 21.3561 14.6079 21.3778C13.8566 21.3942 13.3494 21.1949 12.8208 20.9872C12.2697 20.7707 11.6954 20.545 10.797 20.545C9.84472 20.545 9.24492 20.7781 8.66655 21.0029C8.16609 21.1974 7.68169 21.3857 6.99885 21.4113C5.49425 21.4623 4.34474 20.0132 3.36099 18.7137C1.39441 16.0622 -0.136458 11.2415 1.91618 7.96117C2.91079 6.35234 4.72428 5.3163 6.66278 5.28871C7.51641 5.2726 8.33513 5.57628 9.05286 5.84249C9.60172 6.04607 10.0915 6.22775 10.4927 6.22775C10.845 6.22775 11.3211 6.05334 11.8759 5.85006C12.7503 5.52971 13.8204 5.13766 14.9105 5.24355C15.656 5.26362 17.7775 5.51531 19.1462 7.35744L19.1433 7.35902Z" fill="white"/>
<path fill-rule="evenodd" clip-rule="evenodd" d="M30.0406 0.800246H27.9142V6.6405H30.0406C31.9215 6.6405 33.0264 5.55987 33.0264 3.71835C33.0264 1.88087 31.9171 0.800246 30.0406 0.800246ZM28.7034 1.45591V5.98484H29.988C31.4217 5.98484 32.2197 5.17538 32.2197 3.72644C32.2197 2.26537 31.4261 1.45591 29.988 1.45591H28.7034Z" fill="white"/>
<path fill-rule="evenodd" clip-rule="evenodd" d="M36.0747 6.71335C34.812 6.71335 33.9614 5.87556 33.9614 4.5359C33.9614 3.1922 34.812 2.35846 36.0747 2.35846C37.3331 2.35846 38.1836 3.1922 38.1836 4.5359C38.1836 5.87556 37.3331 6.71335 36.0747 6.71335ZM37.4076 4.5359C37.4076 5.52749 36.8815 6.09411 36.0747 6.09411C35.268 6.09411 34.7375 5.52749 34.7375 4.5359C34.7375 3.54432 35.268 2.97769 36.0747 2.97769C36.8815 2.97769 37.4076 3.54432 37.4076 4.5359Z" fill="white"/>
<path d="M43.0033 6.6405H43.7793L45.0508 2.43131H44.2967L43.3847 5.85532H43.3672L42.3325 2.43131H41.5959L40.5656 5.85532H40.548L39.6361 2.43131H38.8775L40.1534 6.6405H40.9295L41.9554 3.38242H41.9729L43.0033 6.6405Z" fill="white"/>
<path d="M46.6918 2.43131H45.9727V6.6405H46.7356V4.16355C46.7356 3.45123 47.2047 2.98174 47.9238 2.98174C48.6253 2.98174 48.9717 3.35409 48.9717 4.03404V6.6405H49.7345V3.90857C49.7345 2.95341 49.1558 2.35846 48.1562 2.35846C47.4503 2.35846 46.9636 2.64986 46.7093 3.10316H46.6918V2.43131Z" fill="white"/>
<path d="M51.0423 0.800246V6.6405H51.8052V0.800246H51.0423Z" fill="white"/>
<path fill-rule="evenodd" clip-rule="evenodd" d="M52.9112 4.5359C52.9112 5.87556 53.7618 6.71335 55.0245 6.71335C56.2828 6.71335 57.1334 5.87556 57.1334 4.5359C57.1334 3.1922 56.2828 2.35846 55.0245 2.35846C53.7618 2.35846 52.9112 3.1922 52.9112 4.5359ZM55.0245 6.09411C55.8312 6.09411 56.3574 5.52749 56.3574 4.5359C56.3574 3.54432 55.8312 2.97769 55.0245 2.97769C54.2178 2.97769 53.6872 3.54432 53.6872 4.5359C53.6872 5.52749 54.2178 6.09411 55.0245 6.09411Z" fill="white"/>
<path fill-rule="evenodd" clip-rule="evenodd" d="M59.5329 6.71335C58.6253 6.71335 58.0158 6.20744 58.0158 5.45059C58.0158 4.73017 58.6165 4.27688 59.6688 4.22021L60.9753 4.15141V3.79929C60.9753 3.28529 60.607 2.97769 59.9757 2.97769C59.3882 2.97769 59.0199 3.23267 58.9234 3.6455H58.1868C58.2394 2.91698 58.9146 2.35846 59.9932 2.35846C61.063 2.35846 61.7382 2.8927 61.7382 3.73049V6.6405H61.0148V5.91603H60.9972C60.7254 6.39766 60.1467 6.71335 59.5329 6.71335ZM60.9753 5.04182C60.9753 5.64891 60.4229 6.11435 59.7038 6.11435C59.1558 6.11435 58.7919 5.85128 58.7919 5.45059C58.7919 5.05396 59.1426 4.80303 59.7565 4.7666L60.9753 4.6978V5.04182Z" fill="white"/>
<path fill-rule="evenodd" clip-rule="evenodd" d="M62.7829 4.5359C62.7829 5.85532 63.5721 6.71335 64.7339 6.71335C65.3916 6.71335 65.9133 6.41385 66.2071 5.92817H66.2203V6.6405H66.9481V0.800246H66.1852V3.1153H66.1676C65.8958 2.65391 65.3697 2.35846 64.7164 2.35846C63.5677 2.35846 62.7829 3.21648 62.7829 4.5359ZM64.8786 2.97769C64.0719 2.97769 63.5633 3.58479 63.5633 4.5359C63.5633 5.49107 64.0719 6.09411 64.8786 6.09411C65.6634 6.09411 66.1896 5.47892 66.1896 4.5359C66.1896 3.59693 65.6634 2.97769 64.8786 2.97769Z" fill="white"/>
<path fill-rule="evenodd" clip-rule="evenodd" d="M72.3082 6.71335C71.0455 6.71335 70.1949 5.87556 70.1949 4.5359C70.1949 3.1922 71.0455 2.35846 72.3082 2.35846C73.5665 2.35846 74.4171 3.1922 74.4171 4.5359C74.4171 5.87556 73.5665 6.71335 72.3082 6.71335ZM73.641 4.5359C73.641 5.52749 73.1149 6.09411 72.3082 6.09411C71.5014 6.09411 70.9709 5.52749 70.9709 4.5359C70.9709 3.54432 71.5014 2.97769 72.3082 2.97769C73.1149 2.97769 73.641 3.54432 73.641 4.5359Z" fill="white"/>
<path d="M76.2027 2.43131H75.4837V6.6405H76.2466V4.16355C76.2466 3.45123 76.7157 2.98174 77.4347 2.98174C78.1362 2.98174 78.4826 3.35409 78.4826 4.03404V6.6405H79.2455V3.90857C79.2455 2.95341 78.6668 2.35846 77.6671 2.35846C76.9612 2.35846 76.4745 2.64986 76.2203 3.10316H76.2027V2.43131Z" fill="white"/>
<path d="M83.6629 1.41544H82.9001V2.43131H82.2205V3.01007H82.9001V5.54773C82.9001 6.35719 83.2245 6.67288 84.0619 6.67288C84.2417 6.67288 84.4521 6.66074 84.5442 6.6405V6.04959C84.4916 6.05769 84.3162 6.06983 84.2285 6.06983C83.8383 6.06983 83.6629 5.8958 83.6629 5.5113V3.01007H84.5486V2.43131H83.6629V1.41544Z" fill="white"/>
<path d="M85.6985 0.800246V6.6405H86.4614V4.18784C86.4614 3.45932 86.9305 2.98174 87.689 2.98174C88.4037 2.98174 88.7676 3.38242 88.7676 4.05023V6.6405H89.5305V3.92071C89.5305 2.98174 88.9254 2.35846 87.9258 2.35846C87.233 2.35846 86.7332 2.63367 86.4789 3.10316H86.4614V0.800246H85.6985Z" fill="white"/>
<path fill-rule="evenodd" clip-rule="evenodd" d="M94.5737 5.4344H93.824C93.6968 5.83104 93.2716 6.10221 92.6928 6.10221C91.8729 6.10221 91.3599 5.57201 91.3599 4.7666V4.72613H94.6307V4.459C94.6307 3.18411 93.8722 2.35846 92.6402 2.35846C91.3819 2.35846 90.5751 3.24482 90.5751 4.55209C90.5751 5.87556 91.3687 6.71335 92.6753 6.71335C93.6705 6.71335 94.4422 6.17101 94.5737 5.4344ZM92.627 2.9696C91.9124 2.9696 91.4126 3.47551 91.3643 4.17569H93.8415C93.824 3.47146 93.3461 2.9696 92.627 2.9696Z" fill="white"/>
<path fill-rule="evenodd" clip-rule="evenodd" d="M35.3021 20.9576L34.1972 17.9442H29.5936L28.4887 20.9576H26.5384L30.8993 9.80806H32.9249L37.2858 20.9576H35.3021ZM30.0707 16.5534L31.8703 11.6625H31.9205L33.7201 16.5534H30.0707Z" fill="white"/>
<path fill-rule="evenodd" clip-rule="evenodd" d="M47.1021 16.8934C47.1021 14.3204 45.629 12.6978 43.3941 12.6978C42.1218 12.6978 41.109 13.2928 40.5901 14.2277H40.5566V12.8292H38.8072V23.6465H40.6152V19.6209H40.657C41.1593 20.5249 42.1637 21.0967 43.4276 21.0967C45.6373 21.0967 47.1021 19.4664 47.1021 16.8934ZM42.917 19.6827C44.3483 19.6827 45.2439 18.601 45.2439 16.8934C45.2439 15.1935 44.3483 14.1041 42.917 14.1041C41.5359 14.1041 40.6068 15.2167 40.6068 16.8934C40.6068 18.5856 41.5275 19.6827 42.917 19.6827Z" fill="white"/>
<path fill-rule="evenodd" clip-rule="evenodd" d="M53.4867 12.6978C55.7215 12.6978 57.1947 14.3204 57.1947 16.8934C57.1947 19.4664 55.7299 21.0967 53.5201 21.0967C52.2562 21.0967 51.2518 20.5249 50.7496 19.6209H50.7077V23.6465H48.8998V12.8292H50.6491V14.2277H50.6826C51.2016 13.2928 52.2144 12.6978 53.4867 12.6978ZM55.3365 16.8934C55.3365 18.601 54.4409 19.6827 53.0095 19.6827C51.6201 19.6827 50.6994 18.5856 50.6994 16.8934C50.6994 15.2167 51.6285 14.1041 53.0095 14.1041C54.4409 14.1041 55.3365 15.1935 55.3365 16.8934Z" fill="white"/>
<path d="M64.4059 17.8515H62.556C62.6732 19.8682 64.4812 21.1431 67.1597 21.1431C70.0223 21.1431 71.8219 19.8373 71.8219 17.7511C71.8219 16.1207 70.7924 15.2013 68.3148 14.6604L66.9839 14.3591C65.427 14.0036 64.7909 13.54 64.7909 12.7519C64.7909 11.7629 65.7869 11.083 67.2434 11.083C68.6998 11.083 69.6959 11.7552 69.8047 12.8678H71.6294C71.5708 10.9439 69.8214 9.62262 67.2685 9.62262C64.6904 9.62262 62.8741 10.9439 62.8741 12.8678C62.8741 14.4209 63.9036 15.379 66.1218 15.8735L67.687 16.2212C69.2522 16.5766 69.9135 17.0943 69.9135 17.9597C69.9135 18.9564 68.817 19.6827 67.2936 19.6827C65.7032 19.6827 64.5398 18.9564 64.4059 17.8515Z" fill="white"/>
<path d="M76.0385 10.9052H74.2222V12.8292H72.9415V14.1504H74.2222V18.8174C74.2222 20.3859 74.9169 21.0117 76.6998 21.0117C77.1015 21.0117 77.5033 20.9808 77.7042 20.9345V19.6132C77.587 19.6364 77.2941 19.6518 77.1099 19.6518C76.3733 19.6518 76.0385 19.335 76.0385 18.6319V14.1504H77.7126V12.8292H76.0385V10.9052Z" fill="white"/>
<path fill-rule="evenodd" clip-rule="evenodd" d="M78.9996 16.8934C78.9996 19.5128 80.6569 21.1122 83.1764 21.1122C85.6958 21.1122 87.3531 19.5128 87.3531 16.8934C87.3531 14.2818 85.6874 12.6824 83.1764 12.6824C80.6653 12.6824 78.9996 14.2818 78.9996 16.8934ZM83.1764 19.7368C84.5993 19.7368 85.5117 18.7015 85.5117 16.8934C85.5117 15.0931 84.5909 14.0577 83.1764 14.0577C81.7618 14.0577 80.8411 15.0931 80.8411 16.8934C80.8411 18.7015 81.7618 19.7368 83.1764 19.7368Z" fill="white"/>
<path d="M89.1591 12.8292H90.8834V14.2123H90.9252C91.2182 13.2619 92.005 12.6978 93.0429 12.6978C93.3024 12.6978 93.5284 12.7365 93.6623 12.7596V14.3127C93.52 14.2586 93.2019 14.22 92.8504 14.22C91.6869 14.22 90.9671 14.9386 90.9671 16.0898V20.9576H89.1591V12.8292Z" fill="white"/>
<path fill-rule="evenodd" clip-rule="evenodd" d="M101.026 18.5759H102.742C102.491 20.0594 100.968 21.1179 98.9503 21.1179C96.3639 21.1179 94.7987 19.5031 94.7987 16.9378C94.7987 14.388 96.389 12.6882 98.875 12.6882C101.319 12.6882 102.842 14.2798 102.842 16.7447V17.3164H96.6234V17.4169C96.6234 18.8309 97.5441 19.7658 98.9921 19.7658C100.022 19.7658 100.783 19.2867 101.026 18.5759ZM96.6234 16.2457L101.026 16.2073C101.026 15.8648 100.871 15.2299 100.506 14.8933C100.141 14.5566 99.6044 14.301 98.875 14.301C97.4062 14.301 96.6234 15.2068 96.6234 16.2457Z" fill="white"/>
</svg>
