<svg width="104" height="24" viewBox="0 0 104 24" fill="none" xmlns="http://www.w3.org/2000/svg">
<path d="M28.1176 2.89684H25.5789V3.59224H27.3795C27.2904 4.56747 26.4116 4.98337 25.582 4.98337C24.5206 4.98337 23.5944 4.21246 23.5944 3.13189C23.5944 2.07932 24.4773 1.26873 25.5842 1.26873C26.4385 1.26873 26.9417 1.77125 26.9417 1.77125L27.4692 1.26703C27.4692 1.26703 26.7921 0.571289 25.5573 0.571289C23.985 0.571289 22.7687 1.79631 22.7687 3.11942C22.7687 4.4161 23.9129 5.68024 25.5973 5.68024C27.0791 5.68024 28.1637 4.74345 28.1637 3.35798C28.1637 3.06567 28.1176 2.89684 28.1176 2.89684Z" fill="white"/>
<path d="M28.5959 14.1048H34.1744C34.1783 14.1195 34.2752 14.4887 34.2752 15.1179C34.2752 18.1624 31.8921 20.2212 28.6364 20.2212C24.9347 20.2212 22.4205 17.4431 22.4205 14.5941C22.4205 11.6865 25.0934 8.99463 28.5484 8.99475C31.2617 8.99475 32.7494 10.5235 32.7494 10.5235L31.5903 11.6315C31.5903 11.6315 30.4844 10.527 28.6076 10.527C26.1751 10.527 24.235 12.3083 24.235 14.6213C24.235 16.9955 26.2702 18.6896 28.6025 18.6896C30.4255 18.6896 32.3567 17.7757 32.5523 15.6329H28.5959V14.1048Z" fill="white"/>
<path fill-rule="evenodd" clip-rule="evenodd" d="M34.9869 16.5769C34.9869 14.6501 36.6273 12.9982 38.9165 12.9982C40.798 12.9982 42.8385 14.229 42.8385 16.6188C42.8385 18.7039 41.0843 20.2146 38.9431 20.2146C36.5779 20.2146 34.9869 18.532 34.9869 16.5769ZM41.1315 16.6093C41.1315 15.2556 40.0648 14.4154 38.9391 14.4154C37.6743 14.4154 36.7022 15.3489 36.7022 16.5988C36.7022 17.8761 37.6865 18.7983 38.9339 18.7983C40.0693 18.7983 41.1315 17.9342 41.1315 16.6093Z" fill="white"/>
<path fill-rule="evenodd" clip-rule="evenodd" d="M47.5553 12.9982C45.2662 12.9982 43.6257 14.6501 43.6257 16.5769C43.6257 18.532 45.2168 20.2146 47.5822 20.2146C49.7233 20.2146 51.4774 18.7039 51.4774 16.6188C51.4774 14.229 49.4371 12.9982 47.5553 12.9982ZM47.578 14.4154C48.7036 14.4154 49.7704 15.2556 49.7704 16.6093C49.7704 17.9342 48.7082 18.7983 47.5727 18.7983C46.3254 18.7983 45.3413 17.8761 45.3413 16.5988C45.3413 15.3489 46.3131 14.4154 47.578 14.4154Z" fill="white"/>
<path fill-rule="evenodd" clip-rule="evenodd" d="M52.2644 16.6073C52.2644 14.7007 53.9161 13.002 56.017 13.002C56.9317 13.002 57.6208 13.3288 58.1246 13.8301V13.2189H59.7634V19.7026C59.7634 22.25 58.1713 23.4644 56.0822 23.4644C54.1724 23.4644 53.0996 22.3804 52.5665 21.3397L54.0689 20.7599C54.277 21.2249 54.8759 22.0448 56.0698 22.0448C57.3057 22.0448 58.1245 21.299 58.1245 20.0541V19.3426C57.6872 19.8111 57.0949 20.2194 55.9807 20.2194C54.1791 20.2194 52.2644 18.7792 52.2644 16.6073ZM56.169 14.4164C57.1992 14.4164 58.257 15.2284 58.257 16.615C58.257 18.0244 57.2014 18.8011 56.1463 18.8011C55.0264 18.8011 53.984 17.9615 53.984 16.6284C53.984 15.2431 55.0665 14.4164 56.169 14.4164Z" fill="white"/>
<path fill-rule="evenodd" clip-rule="evenodd" d="M63.7488 16.5968C63.7488 14.449 65.4128 12.9933 67.3947 12.9933C68.9578 12.9933 70.1389 13.9557 70.6452 15.1078L70.9174 15.6962L65.6761 17.7037C65.9892 18.2417 66.4946 18.7972 67.5933 18.7973C68.5715 18.7973 69.1578 18.3064 69.5085 17.8039L70.8596 18.6339C70.2538 19.3823 69.2388 20.2174 67.585 20.2174C65.6035 20.2174 63.7488 18.8695 63.7488 16.5968ZM67.4631 14.3812C68.1772 14.3812 68.6911 14.7315 68.9094 15.1518L65.4092 16.5023C65.2584 15.4567 66.3316 14.3812 67.4631 14.3812Z" fill="white"/>
<path d="M62.7993 20.0032H61.0777V9.3679H62.7993V20.0032Z" fill="white"/>
<path d="M84.1598 20.0032H85.8814V9.3679H84.1598V20.0032Z" fill="white"/>
<path fill-rule="evenodd" clip-rule="evenodd" d="M76.7519 20.0032H75.0303V9.3679L79.1948 9.36779C81.2135 9.36779 82.8651 10.8924 82.8651 12.7559C82.8651 14.6193 81.2135 16.1439 79.1948 16.1439H76.7519V20.0032ZM76.7519 14.5546V10.957H79.1947C80.2633 10.957 81.1436 11.7695 81.1436 12.7559C81.1436 13.7421 80.2633 14.5546 79.1947 14.5546H76.7519Z" fill="white"/>
<path d="M98.5922 23.4644L103.577 12.9935H101.697L99.4409 17.7319L97.1851 12.9935H95.3048L98.5007 19.7068L96.7119 23.4644H98.5922Z" fill="white"/>
<path fill-rule="evenodd" clip-rule="evenodd" d="M92.9273 20.0032H94.6489V16.1781C94.9183 12.2331 89.5001 11.3052 87.45 14.1492L88.8354 15.0073C89.8378 13.3895 92.6983 13.7617 92.8863 15.4955C92.0266 15.2853 91.0979 15.1329 90.2494 15.2122C88.9249 15.3359 87.7909 16.1123 87.6107 17.3841C87.5133 18.0713 87.6795 18.9184 88.1992 19.4347C89.0092 20.239 90.3389 20.3474 91.4314 20.0726C92.0464 19.9178 92.5306 19.5805 92.9273 19.1447V20.0032ZM91.0221 18.6863C91.9644 18.4494 92.7071 17.8132 92.9273 16.9288C92.4456 16.7848 92.0024 16.6686 91.4945 16.612C88.5361 16.2015 89.0314 19.1873 91.0221 18.6863Z" fill="white"/>
<path d="M39.2774 5.58114H38.494V0.741141H39.2774V5.58114Z" fill="white"/>
<path d="M34.1063 5.58114H34.8899V1.46432H36.1759V0.741141H32.8203V1.46432H34.1063V5.58114Z" fill="white"/>
<path d="M31.9942 5.58114H28.9896V0.741141H31.9942V1.46432H29.7731V2.79955H31.7268V3.52273H29.7731V4.85785H31.9942V5.58114Z" fill="white"/>
<path d="M41.9847 5.58114V1.46432H43.2707V0.741141H39.9152V1.46432H41.2013V5.58114H41.9847Z" fill="white"/>
<path fill-rule="evenodd" clip-rule="evenodd" d="M45.2866 3.11942C45.2866 1.7962 46.503 0.571289 48.0754 0.571289C49.6477 0.571289 50.8641 1.7962 50.8641 3.11942C50.8641 4.40567 49.738 5.65995 48.0754 5.67979C46.4127 5.65995 45.2866 4.40567 45.2866 3.11942ZM48.0754 4.98303C47.0243 4.97112 46.1124 4.20407 46.1124 3.13189C46.1124 2.08794 46.9811 1.28199 48.0754 1.26895C49.1698 1.28199 50.0383 2.08794 50.0383 3.13189C50.0383 4.20407 49.1264 4.97112 48.0754 4.98303Z" fill="white"/>
<path d="M52.4302 5.58114H51.6467V0.741141H52.4302L54.9452 4.26484V0.741141H55.7287V5.58114H54.9465L52.4302 2.05563V5.58114Z" fill="white"/>
<path d="M1.37601 6.60831L10.2282 14.7676L1.41851 22.9984C1.16142 22.8476 1.0236 22.521 1.02127 22.0992L0.941431 7.49079C0.938974 7.02886 1.12101 6.74709 1.37601 6.60831Z" fill="white"/>
<path d="M2.38297 6.61931L13.1472 12.0404L10.5943 14.4254L2.00736 6.51034C2.13743 6.5261 2.268 6.56137 2.38297 6.61931Z" fill="white"/>
<path d="M13.6259 17.2197L10.9631 14.7652L13.6232 12.2801L17.2865 14.1248C18.1889 14.579 17.7273 15.1473 17.2865 15.37L13.6259 17.2197Z" fill="white"/>
<path d="M2.38297 22.8997C2.30166 22.9417 2.22329 22.9746 2.14824 23.0007L10.5969 15.1074L13.1494 17.4602L2.38297 22.8997Z" fill="white"/>
</svg>
