<svg width="25" height="25" viewBox="0 0 25 25" fill="none" xmlns="http://www.w3.org/2000/svg">
<path d="M8.54686 12.6369C8.54686 10.375 10.381 8.54096 12.6443 8.54096C14.9075 8.54096 16.7426 10.375 16.7426 12.6369C16.7426 14.8987 14.9075 16.7328 12.6443 16.7328C10.381 16.7328 8.54686 14.8987 8.54686 12.6369ZM6.33135 12.6369C6.33135 16.1214 9.15763 18.946 12.6443 18.946C16.1309 18.946 18.9572 16.1214 18.9572 12.6369C18.9572 9.15235 16.1309 6.32776 12.6443 6.32776C9.15763 6.32776 6.33135 9.15235 6.33135 12.6369ZM17.7318 6.07761C17.7317 6.36922 17.8181 6.65431 17.9801 6.89685C18.1421 7.13938 18.3724 7.32845 18.642 7.44015C18.9115 7.55185 19.2081 7.58117 19.4943 7.52439C19.7805 7.46762 20.0434 7.3273 20.2498 7.12118C20.4563 6.91506 20.5969 6.6524 20.6539 6.36642C20.7109 6.08043 20.6818 5.78397 20.5703 5.51451C20.4587 5.24505 20.2697 5.0147 20.0272 4.85259C19.7846 4.69049 19.4994 4.6039 19.2077 4.60378H19.2071C18.816 4.60396 18.4409 4.75928 18.1643 5.03562C17.8877 5.31196 17.7321 5.68673 17.7318 6.07761ZM7.67741 22.638C6.47878 22.5835 5.82729 22.3839 5.39434 22.2154C4.82035 21.992 4.41081 21.7261 3.98022 21.2963C3.54963 20.8666 3.28309 20.4577 3.06061 19.884C2.89184 19.4515 2.69218 18.8002 2.6377 17.6023C2.57809 16.3072 2.56619 15.9181 2.56619 12.637C2.56619 9.35582 2.57908 8.96785 2.6377 7.67164C2.69228 6.47373 2.89341 5.82371 3.06061 5.38994C3.28407 4.81629 3.55022 4.407 3.98022 3.97666C4.41022 3.54633 4.81937 3.27995 5.39434 3.05761C5.82709 2.88894 6.47878 2.6894 7.67741 2.63495C8.97332 2.57538 9.3626 2.56349 12.6443 2.56349C15.9259 2.56349 16.3156 2.57636 17.6126 2.63495C18.8112 2.6895 19.4616 2.89051 19.8956 3.05761C20.4696 3.27995 20.8792 3.54692 21.3098 3.97666C21.7404 4.40641 22.0059 4.81629 22.2294 5.38994C22.3981 5.82243 22.5978 6.47373 22.6523 7.67164C22.7119 8.96785 22.7238 9.35582 22.7238 12.637C22.7238 15.9181 22.7119 16.3061 22.6523 17.6023C22.5977 18.8002 22.3971 19.4513 22.2294 19.884C22.0059 20.4577 21.7398 20.867 21.3098 21.2963C20.8798 21.7257 20.4696 21.992 19.8956 22.2154C19.4629 22.384 18.8112 22.5836 17.6126 22.638C16.3167 22.6976 15.9274 22.7095 12.6443 22.7095C9.36112 22.7095 8.97292 22.6976 7.67741 22.638ZM7.57562 0.424506C6.26683 0.484073 5.37251 0.691474 4.59148 0.995203C3.78263 1.30886 3.09789 1.72966 2.41365 2.41241C1.7294 3.09516 1.30944 3.78057 0.99559 4.58894C0.691678 5.36999 0.484153 6.26328 0.424551 7.57129C0.363965 8.88135 0.350098 9.30018 0.350098 12.6369C0.350098 15.9736 0.363965 16.3924 0.424551 17.7025C0.484153 19.0106 0.691678 19.9038 0.99559 20.6848C1.30944 21.4927 1.7295 22.1789 2.41365 22.8614C3.09779 23.5438 3.78263 23.964 4.59148 24.2786C5.37398 24.5823 6.26683 24.7897 7.57562 24.8493C8.88716 24.9088 9.30555 24.9237 12.6443 24.9237C15.983 24.9237 16.402 24.9098 17.7129 24.8493C19.0218 24.7897 19.9155 24.5823 20.697 24.2786C21.5054 23.964 22.1906 23.5441 22.8749 22.8614C23.5591 22.1786 23.9782 21.4927 24.2929 20.6848C24.5968 19.9038 24.8053 19.0105 24.864 17.7025C24.9236 16.3914 24.9374 15.9736 24.9374 12.6369C24.9374 9.30018 24.9236 8.88135 24.864 7.57129C24.8044 6.26319 24.5968 5.36949 24.2929 4.58894C23.9782 3.78106 23.558 3.09624 22.8749 2.41241C22.1917 1.72858 21.5054 1.30886 20.698 0.995203C19.9155 0.691474 19.0217 0.48309 17.7139 0.424506C16.403 0.36494 15.9839 0.350098 12.6452 0.350098C9.30654 0.350098 8.88716 0.363957 7.57562 0.424506Z" fill="#8D95A2"/>
</svg>
