<svg width="25" height="25" viewBox="0 0 25 25" fill="none" xmlns="http://www.w3.org/2000/svg">
<path fill-rule="evenodd" clip-rule="evenodd" d="M24.9384 12.6443C24.9384 19.4341 19.4341 24.9384 12.6443 24.9384C5.85439 24.9384 0.350098 19.4341 0.350098 12.6443C0.350098 5.85439 5.85439 0.350098 12.6443 0.350098C19.4341 0.350098 24.9384 5.85439 24.9384 12.6443ZM13.8224 8.87183C11.7103 9.78413 5.6204 12.375 5.6204 12.375C4.17714 12.9589 5.02193 13.5062 5.02193 13.5062C5.02193 13.5062 6.25399 13.9441 7.31008 14.2725C8.36611 14.6009 8.92936 14.236 8.92936 14.236C8.92936 14.236 11.3935 12.5574 13.8928 10.7694C15.6528 9.52869 15.2305 10.5504 14.808 10.9883C13.8928 11.9371 12.3791 13.4332 11.1118 14.6374C10.5486 15.1483 10.8302 15.5862 11.0767 15.8051C11.7933 16.4338 13.4812 17.577 14.2476 18.0961C14.4599 18.2399 14.6015 18.3358 14.632 18.3595C14.808 18.5055 15.7937 19.1623 16.3921 19.0164C16.9905 18.8704 17.0609 18.0311 17.0609 18.0311C17.0609 18.0311 17.5186 15.0389 17.941 12.302C18.0192 11.7646 18.0975 11.2386 18.1704 10.748C18.3601 9.47297 18.514 8.43797 18.5394 8.06902C18.645 6.82835 17.3778 7.33919 17.3778 7.33919C17.3778 7.33919 14.632 8.50694 13.8224 8.87183Z" fill="#8D95A2"/>
</svg>
