<svg width="19" height="21" viewBox="0 0 19 21" fill="none" xmlns="http://www.w3.org/2000/svg">
<path fill-rule="evenodd" clip-rule="evenodd" d="M14.0168 7.59942C15.3968 8.58044 17.0494 9.10457 18.7425 9.09822V5.74269C18.4097 5.74361 18.0777 5.70797 17.7526 5.63643V8.30967C16.0557 8.31268 14.4007 7.78253 13.0213 6.79409V13.6953C13.0172 14.8277 12.7066 15.9379 12.1226 16.9081C11.5386 17.8784 10.7029 18.6725 9.70418 19.2063C8.70543 19.74 7.58085 19.9936 6.44968 19.94C5.31852 19.8864 4.22293 19.5277 3.2791 18.902C4.15212 19.7853 5.26763 20.3897 6.48436 20.6386C7.7011 20.8875 8.96433 20.7698 10.1141 20.3003C11.2639 19.8308 12.2485 19.0307 12.9432 18.0012C13.638 16.9718 14.0116 15.7593 14.0168 14.5174V7.59942ZM15.2416 4.17677C14.5398 3.41613 14.1092 2.44483 14.0168 1.41405V0.977832H13.0773C13.1934 1.63304 13.4461 2.25648 13.819 2.80761C14.1919 3.35875 14.6766 3.82524 15.2416 4.17677ZM5.45461 16.2455C5.12896 15.8197 4.9294 15.311 4.87863 14.7773C4.82786 14.2436 4.92792 13.7064 5.16743 13.2268C5.40694 12.7472 5.77627 12.3445 6.2334 12.0645C6.69053 11.7844 7.21708 11.6383 7.75314 11.6428C8.04911 11.6427 8.34333 11.688 8.62558 11.7771V8.30967C8.29564 8.26597 7.96287 8.24728 7.63011 8.25374V10.9494C6.94285 10.7321 6.199 10.7815 5.54651 11.0877C4.89401 11.394 4.38069 11.9346 4.10863 12.602C3.83657 13.2695 3.82571 14.0149 4.07822 14.69C4.33072 15.3651 4.82808 15.9204 5.47138 16.2455H5.45461Z" fill="#8D95A2"/>
<path fill-rule="evenodd" clip-rule="evenodd" d="M13.0208 6.77172C14.4002 7.76016 16.0552 8.29031 17.7521 8.2873V5.61406C16.7853 5.40964 15.907 4.90692 15.2411 4.17677C14.6761 3.82524 14.1914 3.35875 13.8185 2.80761C13.4456 2.25648 13.1929 1.63304 13.0768 0.977832H10.6049V14.5174C10.6026 15.1167 10.4126 15.7003 10.0618 16.1861C9.71088 16.672 9.21666 17.0357 8.64847 17.2264C8.08029 17.417 7.46667 17.4249 6.89376 17.249C6.32085 17.0731 5.81741 16.7222 5.45412 16.2455C4.87839 15.955 4.41731 15.479 4.14529 14.8943C3.87326 14.3096 3.80615 13.6503 3.95479 13.0228C4.10343 12.3953 4.45914 11.8362 4.96454 11.4356C5.46994 11.0351 6.09554 10.8165 6.74041 10.8151C7.03629 10.8161 7.33036 10.8613 7.61285 10.9494V8.25374C6.39232 8.28304 5.20691 8.66808 4.20213 9.36158C3.19735 10.0551 2.41692 11.0269 1.95664 12.1577C1.49637 13.2885 1.37628 14.529 1.61112 15.7271C1.84596 16.9252 2.42551 18.0286 3.27862 18.902C4.22264 19.5322 5.31995 19.8946 6.45366 19.9506C7.58737 20.0065 8.71502 19.7538 9.71648 19.2195C10.7179 18.6852 11.5557 17.8893 12.1406 16.9164C12.7254 15.9436 13.0355 14.8304 13.0376 13.6953L13.0208 6.77172Z" fill="#8D95A2"/>
<path fill-rule="evenodd" clip-rule="evenodd" d="M17.7521 5.61406L17.7525 4.89239C16.8646 4.89616 15.994 4.64817 15.2416 4.17677C15.9058 4.90902 16.7844 5.41216 17.7521 5.61406ZM13.0773 0.977832C13.0773 0.849203 13.0379 0.71475 13.0212 0.586121V0.149902H9.6097V13.6951C9.60674 14.4535 9.30299 15.1798 8.76511 15.7145C8.22723 16.2493 7.49917 16.5488 6.74072 16.5473C6.29414 16.5495 5.85353 16.4463 5.45461 16.2455C5.81789 16.7222 6.32085 17.0731 6.89376 17.249C7.46667 17.4249 8.08029 17.417 8.64847 17.2264C9.21666 17.0357 9.71088 16.672 10.0618 16.1861C10.4126 15.7003 10.6026 15.1167 10.6049 14.5174V0.977832H13.0773ZM7.61316 8.24792V7.48174C6.20937 7.29104 4.78237 7.58142 3.56474 8.30556C2.34711 9.02969 1.41063 10.1449 0.907944 11.4694C0.405256 12.7939 0.365992 14.2496 0.796551 15.5993C1.22711 16.949 2.10227 18.1132 3.2791 18.902C2.43245 18.0266 1.8589 16.9234 1.62886 15.7275C1.39881 14.5316 1.52205 13.2946 1.98353 12.1676C2.44501 11.0406 3.22474 10.0724 4.22746 9.38126C5.23019 8.69015 6.41249 8.30605 7.62994 8.27588L7.61316 8.24792Z" fill="#8D95A2"/>
</svg>
