<svg width="23" height="23" viewBox="0 0 23 23" fill="none" xmlns="http://www.w3.org/2000/svg">
<path d="M0.25 22.75L1.86432 16.7529C0.562412 14.4167 0.148782 11.6906 0.699335 9.07477C1.24989 6.45895 2.72769 4.12889 4.86157 2.51217C6.99545 0.89545 9.64227 0.100511 12.3163 0.273225C14.9904 0.44594 17.5123 1.57472 19.4193 3.45244C21.3264 5.33016 22.4906 7.83086 22.6983 10.4957C22.9061 13.1605 22.1434 15.8106 20.5503 17.9598C18.9572 20.109 16.6405 21.6131 14.0254 22.196C11.4102 22.779 8.67203 22.4017 6.31325 21.1334L0.25 22.75ZM6.6056 18.8893L6.98059 19.1112C8.6891 20.1213 10.6846 20.5393 12.6562 20.3C14.6277 20.0608 16.4646 19.1777 17.8804 17.7885C19.2963 16.3992 20.2117 14.5818 20.4839 12.6195C20.7561 10.6571 20.3699 8.6601 19.3855 6.93956C18.401 5.21901 16.8736 3.87162 15.0413 3.10735C13.2089 2.34308 11.1746 2.20487 9.25528 2.71425C7.33597 3.22363 5.6395 4.352 4.43024 5.9235C3.22097 7.495 2.56685 9.42137 2.5698 11.4024C2.56819 13.045 3.02362 14.6558 3.88541 16.0556L4.12056 16.4423L3.21807 19.7895L6.6056 18.8893Z" fill="#8D95A2"/>
<path fill-rule="evenodd" clip-rule="evenodd" d="M15.7067 12.9423C15.4868 12.7655 15.2294 12.641 14.9541 12.5784C14.6787 12.5157 14.3927 12.5166 14.1178 12.581C13.7046 12.7521 13.4377 13.3987 13.1708 13.7221C13.1145 13.7996 13.0318 13.8539 12.9382 13.8749C12.8445 13.8959 12.7465 13.8822 12.6623 13.8362C11.1499 13.2453 9.88216 12.1618 9.06505 10.7615C8.99535 10.6742 8.96237 10.5632 8.97304 10.4521C8.98371 10.3409 9.0372 10.2382 9.12225 10.1656C9.41997 9.87165 9.63856 9.50753 9.75781 9.10695C9.78429 8.6651 9.6828 8.22498 9.46545 7.83906C9.29742 7.29803 8.97764 6.81627 8.54389 6.45073C8.32017 6.35036 8.07212 6.31671 7.82965 6.35383C7.58719 6.39095 7.36067 6.49726 7.17743 6.65993C6.85931 6.93369 6.60681 7.27514 6.43852 7.65914C6.27023 8.04314 6.19044 8.4599 6.20502 8.87873C6.20601 9.11393 6.23589 9.34812 6.294 9.57607C6.44158 10.1237 6.66854 10.647 6.9677 11.1292C7.18353 11.4986 7.41902 11.8563 7.67317 12.2006C8.49911 13.3315 9.53734 14.2918 10.7302 15.028C11.3288 15.4021 11.9686 15.7063 12.6369 15.9345C13.3311 16.2484 14.0976 16.3689 14.855 16.2832C15.2865 16.218 15.6954 16.0481 16.0456 15.7883C16.3958 15.5285 16.6766 15.1869 16.8634 14.7934C16.9731 14.5557 17.0064 14.29 16.9587 14.0327C16.8443 13.5065 16.1388 13.1959 15.7067 12.9423Z" fill="#8D95A2"/>
</svg>
