<svg width="29" height="29" viewBox="0 0 29 29" fill="none" xmlns="http://www.w3.org/2000/svg">
<path d="M14.4001 3.60001H22.8001C23.4366 3.60001 24.0471 3.85286 24.4972 4.30295C24.9472 4.75304 25.2001 5.36349 25.2001 6.00001V22.8C25.2001 23.4365 24.9472 24.047 24.4972 24.4971C24.0471 24.9471 23.4366 25.2 22.8001 25.2H14.4001M14.4001 3.60001H6.0001C5.36358 3.60001 4.75313 3.85286 4.30304 4.30295C3.85295 4.75304 3.6001 5.36349 3.6001 6.00001V22.8C3.6001 23.4365 3.85295 24.047 4.30304 24.4971C4.75313 24.9471 5.36358 25.2 6.0001 25.2H14.4001M14.4001 3.60001V25.2" stroke="#515A68" stroke-width="3" stroke-linecap="round" stroke-linejoin="round"/>
</svg>
