<svg width="30" height="30" viewBox="0 0 30 30" fill="none" xmlns="http://www.w3.org/2000/svg">
<g clip-path="url(#clip0_68_1001)">
<path d="M27.7799 17.868L14.9999 27.156L2.21988 17.868C2.04855 17.742 1.92146 17.565 1.8568 17.3624C1.79214 17.1598 1.79322 16.942 1.85988 16.74L3.32388 12.204L6.25188 3.192C6.28028 3.11857 6.32549 3.05281 6.38388 3C6.47897 2.91315 6.6031 2.86499 6.73188 2.86499C6.86066 2.86499 6.98479 2.91315 7.07988 3C7.14154 3.0596 7.18697 3.13394 7.21188 3.216L10.1399 12.204H19.8599L22.7879 3.192C22.8163 3.11857 22.8615 3.05281 22.9199 3C23.015 2.91315 23.1391 2.86499 23.2679 2.86499C23.3967 2.86499 23.5208 2.91315 23.6159 3C23.6775 3.0596 23.723 3.13394 23.7479 3.216L26.6759 12.228L28.1999 16.74C28.2605 16.9482 28.2524 17.1704 28.1767 17.3736C28.1011 17.5768 27.9619 17.7502 27.7799 17.868Z" stroke="#515A68" stroke-width="3" stroke-linecap="round" stroke-linejoin="round"/>
</g>
<defs>
<clipPath id="clip0_68_1001">
<rect width="28.8" height="28.8" fill="white" transform="translate(0.600098 0.600006)"/>
</clipPath>
</defs>
</svg>
