<svg width="30" height="30" viewBox="0 0 30 30" fill="none" xmlns="http://www.w3.org/2000/svg">
<path d="M24.6 9H5.4C4.07452 9 3 10.0745 3 11.4V23.4C3 24.7255 4.07452 25.8 5.4 25.8H24.6C25.9255 25.8 27 24.7255 27 23.4V11.4C27 10.0745 25.9255 9 24.6 9Z" stroke="#515A68" stroke-width="3" stroke-linecap="round" stroke-linejoin="round"/>
<path d="M19.8002 25.8V6.60001C19.8002 5.96349 19.5473 5.35304 19.0973 4.90296C18.6472 4.45287 18.0367 4.20001 17.4002 4.20001H12.6002C11.9637 4.20001 11.3532 4.45287 10.9031 4.90296C10.4531 5.35304 10.2002 5.96349 10.2002 6.60001V25.8" stroke="#515A68" stroke-width="3" stroke-linecap="round" stroke-linejoin="round"/>
</svg>
