<svg width="29" height="29" viewBox="0 0 29 29" fill="none" xmlns="http://www.w3.org/2000/svg">
<g clip-path="url(#clip0_68_1081)">
<path d="M19.9583 7.58333H18.5833V6.20833C18.5833 5.35743 18.2453 4.54138 17.6436 3.9397C17.042 3.33802 16.2259 3 15.375 3H12.625C11.7741 3 10.958 3.33802 10.3564 3.9397C9.75469 4.54138 9.41667 5.35743 9.41667 6.20833V7.58333H8.04167C6.70498 7.58479 5.42346 8.11643 4.47828 9.06161C3.5331 10.0068 3.00146 11.2883 3 12.625L3 19.9583C3.00146 21.295 3.5331 22.5765 4.47828 23.5217C5.42346 24.4669 6.70498 24.9985 8.04167 25H19.9583C21.295 24.9985 22.5765 24.4669 23.5217 23.5217C24.4669 22.5765 24.9985 21.295 25 19.9583V12.625C24.9985 11.2883 24.4669 10.0068 23.5217 9.06161C22.5765 8.11643 21.295 7.58479 19.9583 7.58333ZM12.1667 6.20833C12.1667 6.08678 12.215 5.9702 12.3009 5.88424C12.3869 5.79829 12.5034 5.75 12.625 5.75H15.375C15.4966 5.75 15.6131 5.79829 15.6991 5.88424C15.785 5.9702 15.8333 6.08678 15.8333 6.20833V7.58333H12.1667V6.20833ZM22.25 19.9583C22.25 20.5661 22.0086 21.149 21.5788 21.5788C21.149 22.0086 20.5661 22.25 19.9583 22.25H8.04167C7.43388 22.25 6.85098 22.0086 6.42121 21.5788C5.99144 21.149 5.75 20.5661 5.75 19.9583V12.625C5.75 12.0172 5.99144 11.4343 6.42121 11.0045C6.85098 10.5748 7.43388 10.3333 8.04167 10.3333H19.9583C20.5661 10.3333 21.149 10.5748 21.5788 11.0045C22.0086 11.4343 22.25 12.0172 22.25 12.625V19.9583ZM18.125 16.2917C18.125 16.6563 17.9801 17.0061 17.7223 17.2639C17.4644 17.5218 17.1147 17.6667 16.75 17.6667H15.375V19.0417C15.375 19.4063 15.2301 19.7561 14.9723 20.0139C14.7144 20.2718 14.3647 20.4167 14 20.4167C13.6353 20.4167 13.2856 20.2718 13.0277 20.0139C12.7699 19.7561 12.625 19.4063 12.625 19.0417V17.6667H11.25C10.8853 17.6667 10.5356 17.5218 10.2777 17.2639C10.0199 17.0061 9.875 16.6563 9.875 16.2917C9.875 15.927 10.0199 15.5773 10.2777 15.3194C10.5356 15.0615 10.8853 14.9167 11.25 14.9167H12.625V13.5417C12.625 13.177 12.7699 12.8273 13.0277 12.5694C13.2856 12.3115 13.6353 12.1667 14 12.1667C14.3647 12.1667 14.7144 12.3115 14.9723 12.5694C15.2301 12.8273 15.375 13.177 15.375 13.5417V14.9167H16.75C17.1147 14.9167 17.4644 15.0615 17.7223 15.3194C17.9801 15.5773 18.125 15.927 18.125 16.2917Z" fill="#515A68"/>
</g>
<defs>
<clipPath id="clip0_68_1081">
<rect width="22" height="22" fill="white" transform="translate(3 3)"/>
</clipPath>
</defs>
</svg>
