<svg width="26" height="25" viewBox="0 0 26 25" fill="none" xmlns="http://www.w3.org/2000/svg">
<path d="M25.1316 16.1789L19.791 21.2471C17.2404 23.667 13.8641 25 10.2831 25H1.6269C-0.509791 24.9645 -0.508707 21.9063 1.6269 21.8709H10.2831C12.8651 21.8709 15.3085 20.9582 17.2068 19.2945C16.5989 19.6074 15.9055 19.7848 15.1698 19.7848H9.75219C7.61549 19.7493 7.61658 16.6911 9.75219 16.6556H15.1698C16.587 16.6494 16.5859 14.5758 15.1698 14.5695H9.54848C7.0889 14.5695 4.77668 15.4916 3.03547 17.1657L2.77651 17.416C2.14374 18.0272 1.11548 18.0314 0.478375 17.4202C-0.157648 16.811 -0.159815 15.8201 0.474041 15.2079L0.735168 14.9554C3.09181 12.6879 6.21992 11.4404 9.54848 11.4404H15.1698C16.9879 11.4404 18.5471 12.523 19.1896 14.0542L21.1616 12.2258C21.7326 11.6751 22.555 11.3809 23.3893 11.4498C24.2247 11.5144 24.9886 11.9296 25.4827 12.5898C26.2899 13.6694 26.1371 15.2131 25.1316 16.1789ZM11.9203 7.66766V8.83274C11.9571 10.8896 15.134 10.8886 15.1708 8.83274V7.66766C19.1831 7.17951 21.3989 5.18729 21.6719 1.13191C21.7153 0.494609 21.1605 -0.0394315 20.4985 0.00229049C16.8871 0.227589 14.5392 1.52618 13.5456 4.25167C12.552 1.52618 10.204 0.227589 6.59265 0.00229049C5.93063 -0.0394315 5.37587 0.494609 5.41921 1.13191C5.69225 5.18729 7.90804 7.17951 11.9203 7.66766Z" fill="#515A68"/>
</svg>
