<svg width="30" height="30" viewBox="0 0 30 30" fill="none" xmlns="http://www.w3.org/2000/svg">
<path fill-rule="evenodd" clip-rule="evenodd" d="M20.4695 4.23359C19.8899 4.1681 19.3006 4.18708 18.7202 4.29282C17.5203 4.51145 16.4155 5.09057 15.5531 5.953C14.6907 6.81544 14.1116 7.92022 13.8929 9.12014C13.6743 10.32 13.8266 11.5581 14.3294 12.6693C14.5353 13.1243 14.4378 13.6594 14.0846 14.0125L5.79265 22.3045C5.5403 22.5569 5.39854 22.8991 5.39854 23.256C5.39854 23.6129 5.5403 23.9551 5.79265 24.2075C6.04499 24.4598 6.38725 24.6016 6.74412 24.6016C7.10099 24.6016 7.44325 24.4598 7.69559 24.2075L15.9876 15.9155C16.3408 15.5623 16.8758 15.4648 17.3308 15.6707C18.442 16.1736 19.6801 16.3258 20.88 16.1072C22.0799 15.8886 23.1847 15.3095 24.0471 14.447C24.9096 13.5846 25.4887 12.4798 25.7073 11.2799C25.8131 10.6995 25.832 10.1102 25.7665 9.53065L22.6802 12.617C22.2315 13.0568 21.6283 13.303 21.0001 13.303C20.3719 13.303 19.7687 13.0567 19.3201 12.617L19.3115 12.6086L17.3831 10.6801C16.9434 10.2314 16.6971 9.62822 16.6971 9.00001C16.6971 8.3718 16.9434 7.76864 17.3831 7.32001L17.3916 7.31144L20.4695 4.23359ZM18.29 1.9317C19.9699 1.62562 21.7032 1.83877 23.2588 2.54274C23.6177 2.70514 23.8741 3.03336 23.9447 3.42091C24.0153 3.80846 23.8912 4.20599 23.6126 4.48454L19.0972 9.00001L21.0001 10.903L25.5156 6.38748C25.7941 6.10893 26.1917 5.98483 26.5792 6.05545C26.9668 6.12606 27.295 6.38239 27.4574 6.74128C28.1614 8.29695 28.3745 10.0302 28.0684 11.7101C27.7624 13.39 26.9516 14.9367 25.7442 16.1441C24.5368 17.3515 22.9901 18.1622 21.3102 18.4683C19.9093 18.7236 18.4712 18.6177 17.13 18.1672L9.39265 25.9045C8.69022 26.607 7.73751 27.0016 6.74412 27.0016C5.75073 27.0016 4.79802 26.607 4.09559 25.9045C3.39316 25.2021 2.99854 24.2494 2.99854 23.256C2.99854 22.2626 3.39316 21.3099 4.09559 20.6075L11.8329 12.8702C11.3824 11.5289 11.2766 10.0909 11.5318 8.68993C11.8379 7.01006 12.6486 5.46336 13.8561 4.25595C15.0635 3.04854 16.6102 2.23777 18.29 1.9317Z" fill="#515A68"/>
</svg>
