<svg width="30" height="30" viewBox="0 0 30 30" fill="none" xmlns="http://www.w3.org/2000/svg">
<g clip-path="url(#clip0_68_983)">
<g clip-path="url(#clip1_68_983)">
<g clip-path="url(#clip2_68_983)">
<g clip-path="url(#clip3_68_983)">
<path d="M23.9 7.291C23.5478 6.32722 22.9082 5.4948 22.0676 4.90623C21.2271 4.31767 20.2261 4.00134 19.2 4H10.8C9.77388 4.00134 8.77291 4.31767 7.93236 4.90623C7.09181 5.4948 6.45222 6.32722 6.10001 7.291L3.4 14.718C3.13445 15.4495 2.99908 16.2218 3 17V18C3.00179 18.7728 3.18344 19.5346 3.53057 20.225C3.8777 20.9155 4.38079 21.5156 5.00001 21.978C5.00001 21.986 5.00001 21.992 5.00001 22V24C5.00001 24.7957 5.31608 25.5587 5.87868 26.1213C6.44129 26.6839 7.20436 27 8.00001 27C8.79565 27 9.55872 26.6839 10.1213 26.1213C10.6839 25.5587 11 24.7957 11 24V23H19V24C19 24.7957 19.3161 25.5587 19.8787 26.1213C20.4413 26.6839 21.2044 27 22 27C22.7957 27 23.5587 26.6839 24.1213 26.1213C24.6839 25.5587 25 24.7957 25 24V22C25 21.992 25 21.986 25 21.978C25.6192 21.5156 26.1223 20.9155 26.4694 20.225C26.8166 19.5346 26.9982 18.7728 27 18V17C27.001 16.2221 26.8656 15.4501 26.6 14.719L23.9 7.291ZM7.98201 7.975C8.19344 7.39717 8.57694 6.89805 9.08081 6.54491C9.58469 6.19177 10.1847 6.00159 10.8 6H19.2C19.8156 6.00118 20.4161 6.19117 20.9204 6.54434C21.4246 6.8975 21.8085 7.39685 22.02 7.975L24.208 14H5.791L7.98201 7.975ZM9.00001 24C9.00001 24.2652 8.89465 24.5196 8.70711 24.7071C8.51958 24.8946 8.26522 25 8.00001 25C7.73479 25 7.48043 24.8946 7.2929 24.7071C7.10536 24.5196 7.00001 24.2652 7.00001 24V22.9C7.32913 22.9668 7.66416 23.0003 8.00001 23H9.00001V24ZM23 24C23 24.2652 22.8946 24.5196 22.7071 24.7071C22.5196 24.8946 22.2652 25 22 25C21.7348 25 21.4804 24.8946 21.2929 24.7071C21.1054 24.5196 21 24.2652 21 24V23H22C22.3359 23.0003 22.6709 22.9668 23 22.9V24ZM25 18C25 18.7957 24.6839 19.5587 24.1213 20.1213C23.5587 20.6839 22.7957 21 22 21H8.00001C7.20436 21 6.44129 20.6839 5.87868 20.1213C5.31608 19.5587 5.00001 18.7957 5.00001 18V17C5.00408 16.6633 5.04465 16.328 5.12101 16H7.00001V17C7.00001 17.2652 7.10536 17.5196 7.2929 17.7071C7.48043 17.8946 7.73479 18 8.00001 18C8.26522 18 8.51958 17.8946 8.70711 17.7071C8.89465 17.5196 9.00001 17.2652 9.00001 17V16H21V17C21 17.2652 21.1054 17.5196 21.2929 17.7071C21.4804 17.8946 21.7348 18 22 18C22.2652 18 22.5196 17.8946 22.7071 17.7071C22.8946 17.5196 23 17.2652 23 17V16H24.879C24.9554 16.328 24.996 16.6633 25 17V18Z" fill="#515A68"/>
</g>
</g>
</g>
</g>
<defs>
<clipPath id="clip0_68_983">
<rect width="28.8" height="28.8" fill="white" transform="translate(0.600098 0.600006)"/>
</clipPath>
<clipPath id="clip1_68_983">
<rect width="24" height="24" fill="white" transform="translate(3 3)"/>
</clipPath>
<clipPath id="clip2_68_983">
<rect width="24" height="23" fill="white" transform="translate(3 4)"/>
</clipPath>
<clipPath id="clip3_68_983">
<rect width="24" height="23" fill="white" transform="translate(3 4)"/>
</clipPath>
</defs>
</svg>
